# xmcd CD database file
#
# Track frame offsets:
#	150
#	19056
#	38380
#	54333
#	69129
#	84246
#	99593
#	130885
#	151672
#
# Disc length: 2368 seconds
#
# Revision: 0
# Processed by: cddbd v1.5.2PL0 Copyright (c) Steve Scherf et al.
# Submitted via: CDex 1.51
#
DISCID=58093e09
DTITLE=Gabriel, Peter - Car
DYEAR=1977
DGENRE=Blues
TTITLE0=Moribund The Burgermeister
TTITLE1=Solsbury Hill
TTITLE2=Modern Love
TTITLE3=Excuse Me
TTITLE4=Humdrum
TTITLE5=Slowburn
TTITLE6=Waiting For The Big One
TTITLE7=Down The Dolce Vita
TTITLE8=Here Comes The Flood
EXTD=YEAR: 1977
EXTT0=
EXTT1=
EXTT2=
EXTT3=
EXTT4=
EXTT5=
EXTT6=
EXTT7=
EXTT8=
PLAYORDER=
